# xmcd CD database file
#
# Track frame offsets:
#	150
#	18492
#	45485
#	77465
#	101992
#	137292
#
# Disc length: 2071 seconds
#
# Revision: 1
# Processed by: cddbd v1.5.2PL0 Copyright (c) Steve Scherf et al.
# Submitted via: CDex 1.70beta2
#
DISCID=3e081506
DTITLE=Various Artist - Planeta Meditação 15 - O Mundo Vai Acabar!
DYEAR=1998
DGENRE=New Age
TTITLE0=Meditação
TTITLE1=Amim Amim
TTITLE2=Trenturo
TTITLE3=Rasca
TTITLE4=A redescoberta da Alma
TTITLE5=Movimento De The Celestine Sulte
EXTD=YEAR: 1998
EXTT0=
EXTT1=
EXTT2=
EXTT3=
EXTT4=
EXTT5=
PLAYORDER=
